# xmcd
#
# Track frame offsets: 
#        150
#        30155
#        52596
#        70369
#        88560
#        110688
#        131330
#        162225
#
# Disc length: 2703 seconds
#
# Revision: 1
# Processed by: cddbd v1.5.2PL0 Copyright (c) Steve Scherf et al.
# Submitted via: ExactAudioCopy v0.99pb5
#
DISCID=590a8d08
DTITLE=Irepress - Samus Octology
DYEAR=2005
DGENRE=Rock
TTITLE0=Pah No
TTITLE1=Samus
TTITLE2=Pistole
TTITLE3=Snayk's Tale
TTITLE4=June Ipper
TTITLE5=Fiddler, Yee-ryding
TTITLE6=Frid Ohm-martin E.e.k.
TTITLE7=Nonografistole Adendum (trampled to Death By Love)
EXTD=
EXTT0=
EXTT1=
EXTT2=
EXTT3=
EXTT4=
EXTT5=
EXTT6=
EXTT7=
PLAYORDER=
